<?xml version="1.0" encoding="utf-8"?>
<!-- Generator: Adobe Illustrator 19.0.0, SVG Export Plug-In . SVG Version: 6.00 Build 0)  -->
<svg version="1.1" id="Layer_1" xmlns="http://www.w3.org/2000/svg" xmlns:xlink="http://www.w3.org/1999/xlink" x="0px" y="0px"
	 viewBox="0 0 64 48" style="enable-background:new 0 0 64 48;" xml:space="preserve">
<style type="text/css">
	.st0{opacity:0.51;fill:#DAB59A;}
	.st1{fill:#848281;}
</style>
<g id="arrows">
	<path id="arrow-2" class="st0" d="M63.1,36.1c1.1,1.1,1.3,3.1-0.2,4.3c-0.9,0.8-1.8,1.6-2.6,2.5c-1.4,1.4-3.4,1.5-4.9,0.1
		c-4.8-4.5-9.5-9-14.3-13.5c-1.1-1-2.2-2.1-3.2-3.1c-1.8-1.7-1.7-3.3,0-5c3.7-3.5,7.4-6.9,11-10.4c2.2-2,4.3-4.1,6.5-6.1
		C57,3.4,58.9,3.7,60.3,5c1,1,2.1,2,3,3c0.9,1,1,2.7-0.4,4c-2.6,2.5-5.3,5-7.9,7.4c-1.6,1.5-3.2,3-4.8,4.6c1.7,1.6,3.3,3.1,4.9,4.7
		c1.5,1.4,3,2.9,4.6,4.3C60.9,34,62,35.1,63.1,36.1z"/>
	<path id="arrow-1" class="st1" d="M31.7,38.5c1.4,1.3,1.5,3.7-0.2,5.1c-1.1,0.9-2.1,2-3.2,3c-1.7,1.7-4.1,1.8-5.9,0.1
		C16.8,41.4,11.1,36,5.4,30.7c-1.3-1.2-2.6-2.5-3.9-3.7c-2.2-2.1-2-4,0.1-6c4.4-4.2,8.8-8.3,13.2-12.5c2.6-2.4,5.2-4.9,7.8-7.3
		c1.9-1.8,4.1-1.4,5.8,0.1c1.3,1.1,2.5,2.3,3.6,3.6c1.1,1.2,1.2,3.2-0.4,4.8c-3.1,3-6.3,5.9-9.5,8.9c-1.9,1.8-3.8,3.6-5.7,5.5
		c2,1.9,3.9,3.7,5.9,5.6c1.8,1.7,3.7,3.5,5.5,5.2C29,36,30.4,37.3,31.7,38.5z"/>
</g>
</svg>
