<?xml version="1.0" encoding="utf-8"?>
<!-- Generator: Adobe Illustrator 19.0.0, SVG Export Plug-In . SVG Version: 6.00 Build 0)  -->
<svg version="1.1" id="Layer_1" xmlns="http://www.w3.org/2000/svg" xmlns:xlink="http://www.w3.org/1999/xlink" x="0px" y="0px"
	 viewBox="0 0 64 48" style="enable-background:new 0 0 64 48;" xml:space="preserve">
<style type="text/css">
	.st0{opacity:0.51;fill:#DAB59A;}
	.st1{fill:#848281;}
</style>
<g id="arrows">
	<path id="arrow-2" class="st0" d="M0.9,11.8c-1.1-1.1-1.3-3.1,0.2-4.3C2,6.8,2.8,5.9,3.7,5c1.4-1.4,3.4-1.5,4.9-0.1
		c4.8,4.5,9.5,9,14.3,13.5c1.1,1,2.2,2.1,3.2,3.1c1.8,1.7,1.7,3.3,0,5C22.4,30,18.7,33.5,15,37c-2.2,2-4.3,4.1-6.5,6.1
		C7,44.6,5.1,44.3,3.7,43c-1-1-2.1-2-3-3c-0.9-1-1-2.7,0.4-4c2.6-2.5,5.3-5,7.9-7.4c1.6-1.5,3.2-3,4.8-4.6c-1.7-1.6-3.3-3.1-4.9-4.7
		c-1.5-1.4-3-2.9-4.6-4.3C3.1,14,2,12.9,0.9,11.8z"/>
	<path id="arrow-1" class="st1" d="M32.3,9.5c-1.4-1.3-1.5-3.7,0.2-5.1c1.1-0.9,2.1-2,3.2-3c1.7-1.7,4.1-1.8,5.9-0.1
		C47.2,6.6,52.9,12,58.6,17.3c1.3,1.2,2.6,2.5,3.9,3.7c2.2,2.1,2,4-0.1,6c-4.4,4.2-8.8,8.3-13.2,12.5c-2.6,2.4-5.2,4.9-7.8,7.3
		c-1.9,1.8-4.1,1.4-5.8-0.1c-1.3-1.1-2.5-2.3-3.6-3.6c-1.1-1.2-1.2-3.2,0.4-4.8c3.1-3,6.3-5.9,9.5-8.9c1.9-1.8,3.8-3.6,5.7-5.5
		c-2-1.9-3.9-3.7-5.9-5.6c-1.8-1.7-3.7-3.5-5.5-5.2C35,12,33.6,10.7,32.3,9.5z"/>
</g>
</svg>
