<?xml version="1.0" encoding="utf-8"?>
<!-- Generator: Adobe Illustrator 16.0.0, SVG Export Plug-In . SVG Version: 6.00 Build 0)  -->
<!DOCTYPE svg PUBLIC "-//W3C//DTD SVG 1.1//EN" "http://www.w3.org/Graphics/SVG/1.1/DTD/svg11.dtd">
<svg version="1.1" id="shape" xmlns="http://www.w3.org/2000/svg" xmlns:xlink="http://www.w3.org/1999/xlink" x="0px" y="0px"
	 width="351.443px" height="351.442px" viewBox="0 0 351.443 351.442" enable-background="new 0 0 351.443 351.442"
	 xml:space="preserve">
<g id="shape_1_">
	<path id="shape-sqr_3_" fill="#DAB59A" d="M51.443,52.747v247h250v-247H51.443z M295.443,293.747h-238v-235h238V293.747z"/>
	<path id="shape-sqr_2_" fill="#DAB59A" d="M0,176.736l174.707,174.706l176.737-176.737L176.738,0L0,176.736z M343.316,174.705
		l-168.61,168.612L8.125,176.736L176.738,8.125L343.316,174.705z"/>
	<path id="shape-oct_3_" fill="#DAB59A" d="M234.678,35.747H116.769l-82.325,81.019v117.91l82.325,82.071h117.909l83.766-82.071
		v-117.91L234.678,35.747z M313.443,232.689l-79.512,78.058H121.771l-81.328-78.058V118.752l81.328-78.005h112.161l79.512,78.005
		V232.689z"/>
	<path id="shape-oct_2_" fill="#DAB59A" d="M242.23,17.747H110.285l-92.841,92v131.947l92.841,92.053H242.23l94.213-92.053V109.748
		L242.23,17.747z M330.443,239.471l-89.049,89.276H115.882l-92.438-89.276v-127.5l92.438-88.224h125.513l89.049,88.224V239.471z"/>
</g>
</svg>
